<svg width="171" height="26" viewBox="0 0 171 26" fill="none" xmlns="http://www.w3.org/2000/svg">
    <path d="M0.987859 14.6367C2.11439 9.80692 3.24086 4.95981 4.36745 0.130063H14.7662C20.9882 0.130063 25.3382 3.34989 22.4786 10.3954C21.7507 12.1438 20.7801 13.546 19.671 14.6367H21.2481C18.5271 17.2506 14.7663 18.1336 10.4334 18.1336L8.63097 25.9062H0L2.5996 14.6368L0.987859 14.6367ZM11.508 6.55199C11.144 8.24847 10.7281 9.97958 10.3468 11.7453C14.6622 11.5203 16.274 6.55199 11.508 6.55199ZM25.4769 14.706H23.7091L27.1061 0.0954959H45.6678L44.1773 6.6564H34.2812L33.7612 8.87221H42.8602L41.5257 14.706H43.2935L43.1375 15.3984H34.0213L33.1028 19.4493H42.9641L41.4737 25.9928H22.8764L25.4769 14.706ZM68.3377 14.6367H70.2789C68.3897 20.2107 63.5718 24.5904 57.7138 25.6118C53.3984 26.2177 48.5282 25.9234 44.1434 25.9234L46.743 14.6366H44.8192L48.1642 0.0954604C51.6304 0.0954604 60.4 -0.441172 63.8664 1.03025C68.6671 3.09023 69.8629 8.33549 68.7537 13.0094C68.6671 13.5634 68.5284 14.1173 68.3377 14.6367ZM55.4425 6.48286L53.5707 14.6363H55.4945L54.368 19.4834C58.1288 19.4834 60.2259 18.0639 61.3871 14.6363H59.4633C59.654 14.1689 59.7926 13.615 59.9486 12.9571C61.0232 8.47359 59.706 6.48286 55.4425 6.48286ZM73.8482 14.6367H71.8552L80.0008 0.112691H88.6489L90.0528 14.6367H91.9939L93.0858 25.9061H84.1602L83.7963 21.0418H78.8569C77.9903 22.6517 77.1758 24.279 76.3093 25.9061H67.5397L73.8482 14.6367ZM83.5709 15.0002V14.6367H81.6818L81.7164 8.88944L79.394 14.6367H81.3178L81.1792 15.0002H83.5709ZM96.3962 14.6367H94.8017L98.1293 0.130063H106.829L103.467 14.6367H105.079L103.935 19.3625H113.554L112.064 25.9061H93.7786L96.3962 14.6367ZM124.923 14.706L122.324 25.9927H113.554L116.154 14.706H114.386L117.783 0.0954959H126.535L123.173 14.706H124.923ZM142.237 14.152L137.28 19.3973H147.679L146.189 25.9927H124.855L126.155 20.2801L131.926 14.152H130.366L137.541 6.5699H128.252L129.76 0.00899096H149.951L148.633 5.75625L140.661 14.152H142.237ZM150.504 14.706H148.736L152.133 0.0954959H170.695L169.205 6.6564H159.308L158.788 8.87221H167.887L166.553 14.706H168.321L168.165 15.3984H159.049L158.13 19.4493H167.991L166.501 25.9928H147.904L150.504 14.706Z" fill="white"/>
</svg>