<svg width="348" height="152" viewBox="0 0 348 152" fill="none" xmlns="http://www.w3.org/2000/svg">
        <path d="M36.8468 91.6482C38.6683 83.8449 40.4896 76.0135 42.3112 68.2101H59.125C69.1852 68.2101 76.2188 73.4124 71.5951 84.7957C70.4181 87.6206 68.8488 89.886 67.0555 91.6482H69.6055C65.206 95.8715 59.1252 97.2981 52.1192 97.2981L49.2049 109.856H35.2495L39.4528 91.6485L36.8468 91.6482ZM53.8568 78.5859C53.2683 81.3269 52.5958 84.1238 51.9793 86.9767C58.9568 86.6131 61.5629 78.5859 53.8568 78.5859ZM76.443 91.7602H73.5847L79.0773 68.1543H109.09L106.68 78.7546H90.6787L89.838 82.3347H104.55L102.392 91.7602H105.251L104.998 92.879H90.2585L88.7733 99.4238H104.718L102.308 109.996H72.2384L76.443 91.7602ZM145.745 91.6482H148.883C145.829 100.654 138.039 107.73 128.567 109.381C121.589 110.359 113.715 109.884 106.625 109.884L110.828 91.6482H107.718L113.126 68.1542C118.731 68.1542 132.91 67.2872 138.515 69.6646C146.277 72.9928 148.211 81.4675 146.417 89.0191C146.277 89.9141 146.053 90.8091 145.745 91.6482ZM124.894 78.4742L121.868 91.6476H124.978L123.157 99.479C129.238 99.479 132.629 97.1856 134.506 91.6476H131.396C131.704 90.8925 131.928 89.9975 132.18 88.9346C133.918 81.6906 131.788 78.4742 124.894 78.4742ZM154.654 91.6482H151.432L164.603 68.1821H178.586L180.856 91.6482H183.994L185.76 109.856H171.328L170.74 101.997H162.753C161.352 104.598 160.035 107.227 158.634 109.856H144.454L154.654 91.6482ZM170.375 92.2356V91.6483H167.321L167.377 82.3625L163.622 91.6483H166.732L166.508 92.2356H170.375ZM191.112 91.6482H188.534L193.915 68.2101H207.982L202.546 91.6482H205.152L203.302 99.2837H218.855L216.445 109.856H186.88L191.112 91.6482ZM237.238 91.7602L233.034 109.996H218.855L223.058 91.7602H220.2L225.692 68.1543H239.844L234.407 91.7602H237.238ZM265.232 90.8652L257.218 99.3398H274.032L271.622 109.996H237.127L239.229 100.766L248.56 90.8652H246.038L257.64 78.6149H242.62L245.058 68.0145H277.704L275.574 77.3003L262.684 90.8652H265.232ZM278.599 91.7602H275.741L281.233 68.1543H311.246L308.836 78.7546H292.835L291.994 82.3347H306.706L304.549 91.7602H307.407L307.155 92.879H292.415L290.93 99.4238H306.874L304.464 109.996H274.395L278.599 91.7602Z" fill="#0D0D0D"/>
        <path d="M7.65626 151.708L3.27662 135.267H3.21174V151.708H0V129.009H4.47697L8.078 142.596H8.14289V129.009H11.3222V151.708H7.65626ZM27.9437 129.009L31.5772 151.708H27.9762L27.3598 147.59H22.9801L22.3637 151.708H19.0871L22.7206 129.009H27.9437ZM25.1213 133.03L23.4343 144.509H26.8731L25.1862 133.03H25.1213ZM38.3364 132.251V129.009H49.3667V132.251H45.6359V151.708H42.0673V132.251H38.3364ZM56.9045 129.009H60.4731V146.52C60.4731 148.141 61.1868 148.725 62.3223 148.725C63.4577 148.725 64.1715 148.141 64.1715 146.52V129.009H67.5454V146.293C67.5454 149.925 65.7287 152 62.225 152C58.7212 152 56.9045 149.925 56.9045 146.293V129.009ZM87.2165 151.708H83.583C83.3884 151.124 83.2586 150.768 83.2586 148.919V145.352C83.2586 143.244 82.5449 142.466 80.9228 142.466H79.69V151.708H76.1214V129.009H81.5067C85.2051 129.009 86.7947 130.727 86.7947 134.229V136.013C86.7947 138.348 86.0486 139.839 84.4589 140.585V140.65C86.2432 141.396 86.8272 143.082 86.8272 145.45V148.952C86.8272 150.054 86.8596 150.865 87.2165 151.708ZM81.4094 132.251H79.69V139.223H81.085C82.4151 139.223 83.2261 138.64 83.2261 136.824V134.586C83.2261 132.965 82.6746 132.251 81.4094 132.251ZM98.8744 132.251V138.575H103.773V141.818H98.8744V148.465H105.038V151.708H95.3058V129.009H105.038V132.251H98.8744ZM124.559 151.708V129.009H128.127V151.708H124.559ZM144.489 151.708L140.11 135.267H140.045V151.708H136.833V129.009H141.31L144.911 142.596H144.976V129.009H148.155V151.708H144.489ZM175.007 143.244H178.381V146.26C178.381 149.892 176.564 151.968 173.061 151.968C169.557 151.968 167.74 149.892 167.74 146.26V134.456C167.74 130.825 169.557 128.749 173.061 128.749C176.564 128.749 178.381 130.825 178.381 134.456V136.662H175.007V134.229C175.007 132.608 174.293 131.992 173.158 131.992C172.023 131.992 171.309 132.608 171.309 134.229V146.487C171.309 148.109 172.023 148.692 173.158 148.692C174.293 148.692 175.007 148.109 175.007 146.487V143.244ZM190.266 141.98V151.708H186.698V129.009H190.266V138.737H194.321V129.009H197.955V151.708H194.321V141.98H190.266ZM214.609 129.009L218.242 151.708H214.641L214.025 147.59H209.645L209.029 151.708H205.752L209.386 129.009H214.609ZM211.786 133.03L210.099 144.509H213.538L211.851 133.03H211.786ZM237.135 151.708H233.501C233.307 151.124 233.177 150.768 233.177 148.919V145.352C233.177 143.244 232.463 142.466 230.841 142.466H229.608V151.708H226.04V129.009H231.425C235.123 129.009 236.713 130.727 236.713 134.229V136.013C236.713 138.348 235.967 139.839 234.377 140.585V140.65C236.162 141.396 236.746 143.082 236.746 145.45V148.952C236.746 150.054 236.778 150.865 237.135 151.708ZM231.328 132.251H229.608V139.223H231.003C232.333 139.223 233.144 138.64 233.144 136.824V134.586C233.144 132.965 232.593 132.251 231.328 132.251ZM244.186 132.251V129.009H255.216V132.251H251.485V151.708H247.917V132.251H244.186ZM274.011 151.708H270.378C270.183 151.124 270.054 150.768 270.054 148.919V145.352C270.054 143.244 269.34 142.466 267.718 142.466H266.485V151.708H262.916V129.009H268.302C272 129.009 273.59 130.727 273.59 134.229V136.013C273.59 138.348 272.843 139.839 271.254 140.585V140.65C273.038 141.396 273.622 143.082 273.622 145.45V148.952C273.622 150.054 273.655 150.865 274.011 151.708ZM268.204 132.251H266.485V139.223H267.88C269.21 139.223 270.021 138.64 270.021 136.824V134.586C270.021 132.965 269.47 132.251 268.204 132.251ZM285.669 132.251V138.575H290.568V141.818H285.669V148.465H291.833V151.708H282.101V129.009H291.833V132.251H285.669ZM300.02 129.009H303.589V146.52C303.589 148.141 304.302 148.725 305.438 148.725C306.573 148.725 307.287 148.141 307.287 146.52V129.009H310.661V146.293C310.661 149.925 308.844 152 305.34 152C301.837 152 300.02 149.925 300.02 146.293V129.009ZM318.783 134.456C318.783 130.825 320.567 128.749 324.038 128.749C327.51 128.749 329.294 130.825 329.294 134.456V135.17H325.92V134.229C325.92 132.608 325.271 131.992 324.136 131.992C323 131.992 322.351 132.608 322.351 134.229C322.351 135.883 323.065 137.116 325.401 139.158C328.385 141.785 329.326 143.666 329.326 146.26C329.326 149.892 327.51 151.968 324.006 151.968C320.502 151.968 318.685 149.892 318.685 146.26V144.866H322.059V146.487C322.059 148.109 322.773 148.692 323.908 148.692C325.044 148.692 325.758 148.109 325.758 146.487C325.758 144.833 325.044 143.601 322.708 141.558C319.723 138.932 318.783 137.051 318.783 134.456ZM341.082 132.251V138.575H345.98V141.818H341.082V148.465H347.245V151.708H337.513V129.009H347.245V132.251H341.082Z" fill="#C3C3C3"/>
        <path d="M140.831 42.2797L158.351 41.4561C158.351 38.9448 160.541 34.867 160.541 34.867C160.541 34.867 163.323 34.867 166.016 34.867C168.206 31.5725 171.491 24.9834 173.681 24.9834C173.681 24.9834 174.776 21.6889 176.966 21.6889C179.847 21.6889 195.58 29.1016 195.58 29.1016L183.535 42.2797C183.535 42.2797 189.467 39.9447 195.58 38.9852C197.757 38.6436 195.324 35.1088 197.77 34.867C199.882 34.6583 202.15 34.0434 203.245 34.0434C204.34 34.0434 205.471 23.1313 207.625 24.9834C215.29 31.5725 231.063 39.2165 235 42.2797L221.86 28.278L218.575 31.5725L208.72 20.8653L196.675 26.6307L184.63 20.0417L181.345 21.6889L175.871 19.218L171.491 24.1598L166.016 22.5125L152.876 35.6907L149.18 35.1759L140.831 42.2797Z" fill="url(#paint0_linear_78_318)"/>
        <path d="M154.63 19.1583C154.582 19.0744 154.368 19.035 154.232 18.9161C154.27 18.7385 154.418 18.5807 154.401 18.485C154.386 18.3638 154.38 18.3202 154.207 17.9271C154.037 17.5334 154.021 17.5216 153.945 17.4273C153.883 17.3519 153.666 17.3488 153.511 17.2555C153.518 17.0746 153.633 16.8952 153.603 16.8029C153.565 16.6871 153.551 16.6454 153.313 16.2854C153.077 15.9274 153.059 15.9201 152.968 15.839C152.891 15.7764 152.677 15.8105 152.507 15.7447C152.483 15.565 152.566 15.368 152.519 15.2839C152.462 15.1767 152.441 15.1376 152.144 14.8255C151.848 14.514 151.827 14.5106 151.724 14.446C151.638 14.3959 151.434 14.4675 151.255 14.4324C151.198 14.2603 151.245 14.052 151.185 13.9772C151.11 13.8817 151.083 13.8482 150.734 13.5902C150.386 13.3341 150.368 13.3332 150.253 13.289C150.164 13.2547 149.982 13.3565 149.804 13.3588C149.797 13.3542 149.79 13.3497 149.781 13.3444C149.702 13.186 149.712 12.9813 149.64 12.9185C149.55 12.8372 149.517 12.8084 149.128 12.6163C148.741 12.424 148.722 12.4265 148.603 12.4024C148.505 12.3846 148.338 12.5197 148.158 12.5487C148.045 12.4067 148.017 12.1953 147.934 12.1447C147.829 12.0804 147.792 12.0567 147.376 11.9352C146.959 11.8117 146.942 11.8179 146.818 11.8158C146.719 11.8141 146.579 11.9774 146.406 12.0352C146.268 11.9148 146.205 11.7107 146.114 11.6756C146.001 11.629 145.96 11.6135 145.527 11.5651C145.096 11.5164 145.08 11.5235 144.959 11.5446C144.861 11.5595 144.75 11.7441 144.588 11.8307C144.433 11.7364 144.335 11.5458 144.239 11.5256C144.119 11.5007 144.077 11.4929 143.641 11.5185C143.208 11.5436 143.192 11.5568 143.075 11.595C142.983 11.6253 142.906 11.8271 142.763 11.9406C142.592 11.8741 142.463 11.7046 142.364 11.7019C142.241 11.6963 142.198 11.6961 141.774 11.7966C141.352 11.8968 141.338 11.9105 141.23 11.9706C141.144 12.0173 141.103 12.2284 140.981 12.3631C140.801 12.325 140.645 12.1797 140.549 12.1971C140.424 12.213 140.381 12.2203 139.982 12.3913C139.581 12.5607 139.575 12.578 139.475 12.6563C139.399 12.7182 139.396 12.9318 139.3 13.0856C139.116 13.0799 138.936 12.9633 138.845 12.9974C138.726 13.0351 138.684 13.0493 138.321 13.2863C137.956 13.5207 137.951 13.5375 137.868 13.6328C137.807 13.7018 137.83 13.8901 137.779 14.0501L136.86 12.7698C136.915 12.5587 136.887 12.3294 136.749 12.1397L133.911 8.21752C133.969 8.03587 134.032 7.83445 134.107 7.61211C134.342 6.89689 134.584 6.03344 134.403 5.21351C134.373 5.08747 134.323 4.96197 134.264 4.83862C134.281 4.78407 134.3 4.72929 134.301 4.66839C134.301 4.66839 134.302 4.66816 134.302 4.64192C134.301 4.61591 134.297 4.56958 134.286 4.52194C134.251 4.28593 133.984 4.02741 133.765 3.99116C133.549 3.9396 133.403 3.97014 133.268 4.00005C132.818 4.11511 132.35 4.37902 131.811 4.64523C131.285 4.91256 130.722 5.17507 130.328 5.26639C130.231 5.28924 130.145 5.3013 130.081 5.30391C129.757 5.3241 129.511 5.59953 129.529 5.9203C129.546 6.24007 129.824 6.48359 130.147 6.46463C130.299 6.45469 130.45 6.43062 130.596 6.39587C130.908 6.31986 131.221 6.20053 131.528 6.06581C131.394 6.21207 131.154 6.35686 130.662 6.48191C130.503 6.51975 130.316 6.5514 130.101 6.57832C129.94 6.59759 129.825 6.7433 129.845 6.90317C129.864 7.06229 130.009 7.17557 130.17 7.15531C130.404 7.12609 130.612 7.08945 130.798 7.04517C130.798 7.04517 130.803 7.04398 130.807 7.04303C131.482 6.88308 131.874 6.60978 132.086 6.29961C132.248 6.06077 132.299 5.82655 132.332 5.68229C132.334 5.68182 132.338 5.68086 132.338 5.68086C132.643 5.52383 132.939 5.37711 133.165 5.27306C133.201 5.31919 133.232 5.3789 133.259 5.48363C133.331 5.75789 133.28 6.26713 133.143 6.75973C133.058 7.07878 132.947 7.38817 132.843 7.65283C132.766 7.67635 132.689 7.7031 132.62 7.75196C132.282 7.99136 132.202 8.44761 132.424 8.78814C132.424 8.80052 132.42 8.80569 132.421 8.81906C132.421 8.81906 132.49 9.00193 132.687 9.35163L132.778 9.28912L132.992 9.58427L120.99 19.1714L120.285 18.01C120.205 17.8761 120.078 17.7917 119.941 17.7414L116.175 11.5374C116.596 11.2627 116.977 11.0036 117.166 10.9586C117.568 10.8634 119.286 10.8577 120.282 10.6216C121.277 10.3855 119.714 9.6762 118.929 9.86233C118.145 10.0482 111.653 11.5875 111.653 11.5875C111.231 11.6875 111.362 12.2361 111.898 12.109C112.434 11.9822 114.116 12.423 114.825 12.2549C114.964 12.2221 115.124 12.1506 115.29 12.066L119.056 18.2699C119.035 18.4143 119.054 18.564 119.136 18.6977L119.99 20.1056L118.909 21.3537C118.853 21.3113 118.785 21.2594 118.689 21.1877C118.341 20.9316 118.323 20.9307 118.208 20.8866C118.118 20.8523 117.937 20.954 117.759 20.9563C117.752 20.9518 117.744 20.9473 117.736 20.942C117.657 20.7835 117.666 20.5789 117.595 20.5161C117.505 20.4347 117.471 20.406 117.083 20.2139C116.696 20.0215 116.677 20.0241 116.557 19.9999C116.46 19.9822 116.293 20.1172 116.113 20.1462C115.999 20.0043 115.972 19.7928 115.888 19.7423C115.784 19.6779 115.747 19.6543 115.331 19.5328C114.914 19.4092 114.897 19.4155 114.773 19.4133C114.674 19.4116 114.534 19.5749 114.361 19.6327C114.223 19.5123 114.16 19.3082 114.068 19.2732C113.956 19.2266 113.915 19.2111 113.482 19.1627C113.051 19.114 113.034 19.121 112.914 19.1422C112.816 19.1571 112.705 19.3417 112.543 19.4283C112.388 19.334 112.29 19.1434 112.194 19.1232C112.073 19.0983 112.031 19.0904 111.596 19.116C111.163 19.1411 111.147 19.1543 111.03 19.1926C110.938 19.2229 110.86 19.4247 110.718 19.5382C110.547 19.4717 110.418 19.3021 110.318 19.2994C110.196 19.2938 110.153 19.2937 109.729 19.3941C109.306 19.4943 109.293 19.508 109.185 19.5682C109.098 19.6149 109.057 19.8259 108.936 19.9607C108.756 19.9226 108.599 19.7773 108.504 19.7947C108.379 19.8106 108.335 19.8178 107.937 19.9888C107.536 20.1583 107.53 20.1756 107.429 20.2538C107.354 20.3158 107.351 20.5294 107.255 20.6832C107.071 20.6775 106.89 20.5609 106.8 20.5949C106.681 20.6327 106.638 20.6469 106.276 20.8838C105.91 21.1183 105.906 21.1351 105.822 21.2303C105.757 21.3045 105.792 21.5165 105.725 21.6822C105.543 21.7087 105.345 21.6256 105.261 21.6738C105.148 21.7319 105.11 21.7526 104.795 22.0484C104.477 22.343 104.475 22.3613 104.409 22.4671C104.357 22.5495 104.429 22.7527 104.394 22.9289C104.217 22.9864 104.007 22.9376 103.934 23.0001C103.834 23.0773 103.8 23.1033 103.539 23.4491C103.279 23.794 103.28 23.8106 103.233 23.9275C103.198 24.0175 103.302 24.1985 103.301 24.3737C103.298 24.3786 103.295 24.3846 103.291 24.3897C103.13 24.4709 102.919 24.46 102.859 24.5342C102.773 24.6247 102.744 24.6588 102.549 25.0417C102.353 25.4258 102.357 25.4427 102.332 25.565C102.312 25.6618 102.45 25.8273 102.475 26.0048C102.33 26.1178 102.116 26.1425 102.069 26.2259C102.001 26.3322 101.978 26.3692 101.852 26.7807C101.725 27.1924 101.733 27.2083 101.728 27.3321C101.726 27.4311 101.892 27.57 101.948 27.7392C101.826 27.8761 101.618 27.938 101.584 28.0288C101.537 28.1447 101.52 28.1854 101.471 28.6103C101.417 29.0383 101.427 29.0525 101.445 29.1752C101.46 29.2722 101.648 29.3819 101.733 29.5379C101.635 29.6932 101.442 29.7904 101.425 29.8855C101.398 30.0061 101.392 30.0486 101.415 30.4771C101.435 30.9064 101.449 30.9209 101.487 31.0378C101.52 31.1305 101.724 31.2059 101.835 31.3451C101.766 31.5146 101.592 31.6439 101.594 31.7399C101.589 31.8639 101.588 31.907 101.688 32.3246C101.783 32.7446 101.8 32.7564 101.857 32.8634C101.906 32.9483 102.12 32.9887 102.254 33.1068C102.216 33.2847 102.069 33.4423 102.086 33.5377C102.101 33.6599 102.107 33.7026 102.28 34.0956C102.448 34.4918 102.465 34.5004 102.542 34.5965C102.606 34.6716 102.824 34.6744 102.977 34.768C102.97 34.9501 102.852 35.13 102.885 35.2186C102.923 35.3376 102.937 35.3793 103.174 35.7363C103.411 36.0963 103.428 36.1027 103.522 36.1833C103.597 36.2471 103.812 36.212 103.979 36.2772C104.004 36.4589 103.919 36.6552 103.969 36.7376C104.026 36.8468 104.047 36.8849 104.344 37.196C104.641 37.5095 104.66 37.5111 104.765 37.5765C104.848 37.6248 105.054 37.555 105.232 37.5894C105.291 37.7632 105.242 37.9719 105.304 38.0441C105.38 38.1426 105.406 38.175 105.756 38.4309C106.102 38.6894 106.12 38.6883 106.235 38.7325C106.327 38.7673 106.513 38.6643 106.694 38.6656C106.696 38.6671 106.699 38.6686 106.702 38.6699C106.785 38.8296 106.774 39.0407 106.848 39.1008C106.939 39.1851 106.973 39.2126 107.36 39.403C107.747 39.5985 107.767 39.5927 107.887 39.6187C107.984 39.6367 108.151 39.5006 108.331 39.4736C108.445 39.6165 108.472 39.8282 108.555 39.8765C108.659 39.9431 108.696 39.9648 109.113 40.0851C109.528 40.2101 109.545 40.2018 109.669 40.206C109.767 40.2057 109.909 40.0441 110.081 39.9866C110.218 40.1072 110.282 40.3123 110.372 40.3453C110.487 40.3925 110.529 40.4068 110.959 40.4547C111.39 40.5055 111.406 40.4965 111.53 40.4787C111.627 40.462 111.737 40.2776 111.897 40.1925C112.052 40.2878 112.15 40.4784 112.248 40.4939C112.368 40.521 112.411 40.5276 112.844 40.5025C113.279 40.4782 113.292 40.4635 113.412 40.4277C113.506 40.3949 113.582 40.1944 113.724 40.0821C113.895 40.1486 114.024 40.3182 114.123 40.3189C114.246 40.3242 114.29 40.3234 114.711 40.2234C115.135 40.1262 115.148 40.1095 115.257 40.0521C115.344 40.0042 115.383 39.7936 115.503 39.6593C115.684 39.6962 115.842 39.8411 115.939 39.8244C116.061 39.808 116.105 39.8007 116.504 39.6297C116.904 39.4615 116.911 39.442 117.011 39.3669C117.087 39.3038 117.09 39.0902 117.185 38.9366C117.369 38.9423 117.549 39.0579 117.643 39.0241C117.76 38.9869 117.802 38.9717 118.164 38.7359C118.529 38.5005 118.534 38.4825 118.619 38.3922C118.683 38.3163 118.648 38.1043 118.716 37.9373C118.898 37.9118 119.096 37.9939 119.182 37.9452C119.291 37.8879 119.328 37.8654 119.646 37.5711C119.964 37.2766 119.965 37.2563 120.032 37.1534C120.083 37.069 120.012 36.8678 120.047 36.6906C120.222 36.6334 120.432 36.6812 120.509 36.619C120.606 36.5434 120.641 36.5163 120.9 36.1707C121.161 35.8258 121.16 35.8072 121.208 35.6931C121.243 35.603 121.139 35.4211 121.14 35.2436C121.144 35.2397 121.146 35.235 121.149 35.23C121.31 35.1489 121.521 35.1586 121.584 35.0849C121.668 34.9938 121.697 34.9607 121.891 34.5771C122.087 34.194 122.083 34.1751 122.111 34.0563C122.129 33.9577 121.991 33.7933 121.965 33.615C122.11 33.503 122.324 33.4753 122.375 33.3909C122.44 33.2873 122.463 33.2504 122.587 32.8384C122.634 32.6868 122.66 32.5989 122.677 32.5298L126.354 31.3477C126.447 31.3349 126.54 31.3318 126.632 31.31C128.15 30.9501 129.091 29.4417 128.735 27.942C128.591 27.3385 128.254 26.8335 127.809 26.4631L134.449 11.5989L135.487 13.0336C135.612 13.2073 135.798 13.3056 135.996 13.3352L136.813 14.4721C136.525 14.7395 136.514 14.7651 136.451 14.8683C136.399 14.9507 136.471 15.1539 136.435 15.3301C136.259 15.3876 136.049 15.3388 135.976 15.4012C135.876 15.4785 135.841 15.5044 135.581 15.8503C135.32 16.1951 135.321 16.2117 135.275 16.3286C135.24 16.4187 135.343 16.5996 135.343 16.7749C135.34 16.7798 135.337 16.7857 135.333 16.7909C135.172 16.8721 134.961 16.8611 134.9 16.9353C134.815 17.0259 134.786 17.06 134.59 17.4429C134.394 17.827 134.398 17.8438 134.373 17.9661C134.354 18.063 134.492 18.2284 134.517 18.4059C134.372 18.5189 134.157 18.5436 134.11 18.6271C134.042 18.7334 134.019 18.7703 133.893 19.1818C133.766 19.5936 133.774 19.6095 133.77 19.7332C133.768 19.8322 133.933 19.9712 133.99 20.1403C133.867 20.2773 133.659 20.3392 133.626 20.43C133.579 20.5459 133.562 20.5866 133.512 21.0115C133.458 21.4395 133.469 21.4537 133.487 21.5764C133.502 21.6733 133.689 21.7831 133.774 21.9391C133.676 22.0944 133.483 22.1916 133.467 22.2867C133.44 22.4073 133.433 22.4498 133.457 22.8783C133.477 23.3075 133.491 23.322 133.528 23.439C133.562 23.5317 133.766 23.6071 133.877 23.7463C133.808 23.9157 133.634 24.045 133.636 24.1411C133.63 24.2651 133.63 24.3082 133.73 24.7258C133.825 25.1458 133.841 25.1576 133.898 25.2646C133.947 25.3495 134.162 25.3899 134.296 25.508C134.257 25.6859 134.11 25.8434 134.128 25.9389C134.143 26.0611 134.149 26.1038 134.322 26.4968C134.49 26.893 134.507 26.9016 134.584 26.9976C134.647 27.0728 134.865 27.0756 135.019 27.1691C135.012 27.3513 134.894 27.5311 134.927 27.6198C134.965 27.7388 134.979 27.7805 135.215 28.1375C135.453 28.4975 135.47 28.5038 135.563 28.5844C135.639 28.6483 135.853 28.6132 136.02 28.6784C136.046 28.8601 135.961 29.0564 136.011 29.1388C136.068 29.248 136.089 29.2861 136.386 29.5971C136.682 29.9106 136.702 29.9123 136.806 29.9777C136.89 30.026 137.096 29.9562 137.274 29.9905C137.332 30.1644 137.283 30.3731 137.346 30.4453C137.421 30.5438 137.448 30.5762 137.797 30.832C138.144 31.0906 138.162 31.0895 138.276 31.1337C138.368 31.1685 138.555 31.0655 138.736 31.0667C138.738 31.0682 138.741 31.0698 138.744 31.071C138.826 31.2308 138.816 31.4418 138.89 31.5019C138.981 31.5862 139.015 31.6138 139.402 31.8041C139.789 31.9997 139.809 31.9939 139.929 32.0198C140.026 32.0378 140.193 31.9018 140.373 31.8748C140.487 32.0177 140.514 32.2294 140.597 32.2777C140.701 32.3443 140.738 32.3659 141.155 32.4862C141.569 32.6113 141.586 32.603 141.71 32.6071C141.809 32.6068 141.951 32.4453 142.123 32.3878C142.26 32.5084 142.323 32.7135 142.414 32.7465C142.529 32.7937 142.571 32.8079 143.001 32.8558C143.432 32.9067 143.448 32.8977 143.572 32.8798C143.669 32.8632 143.779 32.6788 143.939 32.5937C144.094 32.689 144.192 32.8795 144.29 32.8951C144.41 32.9222 144.453 32.9288 144.886 32.9037C145.32 32.8794 145.334 32.8646 145.454 32.8289C145.548 32.7961 145.624 32.5956 145.766 32.4833C145.937 32.5498 146.066 32.7193 146.165 32.72C146.288 32.7254 146.331 32.7246 146.753 32.6246C147.176 32.5274 147.189 32.5107 147.299 32.4533C147.386 32.4053 147.425 32.1948 147.545 32.0605C147.725 32.0974 147.884 32.2422 147.981 32.2256C148.103 32.2092 148.147 32.2019 148.545 32.0309C148.945 31.8626 148.953 31.8432 149.052 31.7681C149.129 31.705 149.132 31.4913 149.227 31.3378C149.411 31.3435 149.591 31.4591 149.685 31.4253C149.802 31.388 149.844 31.3728 150.206 31.1371C150.571 30.9017 150.576 30.8837 150.661 30.7934C150.724 30.7175 150.69 30.5055 150.757 30.3385C150.94 30.313 151.138 30.3951 151.224 30.3464C151.333 30.289 151.37 30.2666 151.687 29.9723C152.006 29.6777 152.007 29.6574 152.074 29.5546C152.125 29.4702 152.054 29.269 152.089 29.0918C152.264 29.0345 152.474 29.0823 152.55 29.0202C152.648 28.9446 152.683 28.9175 152.942 28.5718C153.203 28.227 153.202 28.2084 153.25 28.0942C153.285 28.0042 153.181 27.8223 153.182 27.6448C153.185 27.6408 153.188 27.6361 153.191 27.6312C153.352 27.5501 153.563 27.5597 153.626 27.4861C153.709 27.395 153.739 27.3619 153.933 26.9783C154.129 26.5952 154.125 26.5763 154.152 26.4575C154.17 26.3589 154.033 26.1944 154.006 26.0162C154.151 25.9042 154.365 25.8765 154.416 25.7921C154.482 25.6885 154.505 25.6515 154.629 25.2395C154.757 24.8286 154.749 24.8104 154.756 24.6894C154.756 24.5896 154.592 24.4514 154.535 24.2815C154.657 24.1456 154.863 24.0812 154.898 23.9909C154.946 23.877 154.962 23.8363 155.012 23.4114C155.065 22.9836 155.056 22.969 155.039 22.8472C155.022 22.7495 154.837 22.6416 154.75 22.4828C154.848 22.3285 155.04 22.2296 155.058 22.1352C155.083 22.0158 155.092 21.9728 155.068 21.5436C155.046 21.1158 155.033 21.0999 154.996 20.9849C154.963 20.8912 154.76 20.8165 154.647 20.6766C154.717 20.5081 154.888 20.3783 154.889 20.2828C154.894 20.159 154.895 20.1157 154.794 19.6971C154.702 19.2786 154.688 19.2663 154.63 19.1583ZM117.707 24.3059C118.517 25.0961 119.163 26.0658 119.563 27.1799L114.247 28.3019L117.707 24.3059ZM119.086 33.4158L114.99 34.7328C115.02 34.6272 115.033 34.5161 115.006 34.402C114.92 34.0397 114.553 33.8154 114.185 33.9025C113.819 33.9894 113.59 34.3549 113.677 34.7171C113.763 35.0794 114.131 35.3035 114.497 35.2166C114.605 35.1911 114.697 35.1358 114.776 35.0687L118.903 33.7421C117.858 35.4694 116.142 36.7988 114.008 37.3046C109.817 38.2984 105.621 35.7452 104.637 31.6035C103.652 27.4598 106.252 23.2946 110.443 22.3009C112.795 21.7432 115.148 22.303 116.933 23.6348L112.59 28.6506L112.363 28.6982C112.106 28.6363 111.834 28.6243 111.558 28.6898C110.639 28.9078 110.066 29.8258 110.283 30.7389C110.499 31.65 111.423 32.2089 112.343 31.9909C112.98 31.8397 113.443 31.3557 113.601 30.7719L120.008 29.9532C119.98 31.1814 119.656 32.3632 119.086 33.4158ZM119.967 28.9304L113.554 29.7493C113.5 29.6039 113.433 29.4657 113.346 29.3438L113.972 28.6196L119.643 27.4231C119.705 27.6148 119.766 27.807 119.813 28.0055C119.886 28.3142 119.933 28.6228 119.967 28.9304ZM120.099 22.4229C119.804 22.1113 119.783 22.1079 119.679 22.0433C119.677 22.0418 119.67 22.0445 119.667 22.0432L120.549 21.0247L123.75 26.2973L122.319 26.5989C122.273 26.5752 122.227 26.5482 122.188 26.5134C122.225 26.3358 122.374 26.178 122.357 26.0823C122.342 25.9611 122.336 25.9175 122.163 25.5244C121.993 25.1307 121.977 25.1189 121.901 25.0246C121.839 24.9492 121.622 24.9462 121.467 24.8528C121.474 24.6719 121.589 24.4926 121.559 24.4002C121.521 24.2844 121.506 24.2427 121.269 23.8827C121.032 23.5247 121.015 23.5174 120.923 23.4363C120.847 23.3737 120.632 23.4078 120.463 23.3421C120.438 23.1623 120.522 22.9653 120.474 22.8812C120.418 22.774 120.397 22.7349 120.099 22.4229ZM124.116 28.2707C123.839 28.3007 123.671 28.1068 123.742 27.8393C123.742 27.8393 123.853 27.424 124.178 27.0493C124.184 27.0426 124.191 27.0378 124.196 27.0314L124.898 28.189L124.116 28.2707ZM125.267 29.282C125.277 29.3435 125.278 29.4084 125.264 29.4714L125.094 30.2583C125.036 30.5278 124.796 30.6278 124.562 30.4788C124.562 30.4788 124.196 30.2478 123.938 29.8279C123.863 29.7051 123.811 29.5853 123.768 29.4728L125.267 29.282ZM123.179 28.52L122.933 28.5511C122.873 28.471 122.708 28.3969 122.607 28.2729C122.676 28.1045 122.848 27.9747 122.849 27.8791C122.853 27.7554 122.855 27.7121 122.754 27.2935C122.673 26.9384 122.648 26.8751 122.609 26.7984L123.892 26.5279L123.97 26.6591C123.487 27.1544 123.202 27.8154 123.179 28.52ZM122.7 32.2549C122.675 32.1581 122.547 32.0344 122.495 31.8799C122.618 31.7439 122.823 31.6795 122.859 31.5892C122.906 31.4753 122.923 31.4346 122.972 31.0098C123.025 30.582 123.017 30.5673 122.999 30.4456C122.983 30.3479 122.797 30.2399 122.71 30.0811C122.808 29.9268 123 29.8279 123.018 29.7335C123.029 29.6784 123.037 29.6366 123.041 29.5676L123.342 29.5289C123.687 30.4996 124.528 31.1872 125.517 31.3501L122.7 32.2549ZM127.357 30.5103C127.357 30.5103 127.019 30.7843 126.534 30.8993C126.05 31.014 125.626 30.9206 125.626 30.9206C125.355 30.8611 125.261 30.6255 125.417 30.3977L125.887 29.7095C126.044 29.4795 126.368 29.4059 126.608 29.5438L127.312 29.9442C127.551 30.0804 127.573 30.3363 127.357 30.5103ZM125.728 26.7268C125.615 26.4757 125.752 26.2557 126.03 26.239C126.03 26.239 126.11 26.2378 126.222 26.2448L125.867 27.0376L125.728 26.7268ZM128.263 27.8902C128.263 27.8902 128.421 28.291 128.38 28.7831C128.337 29.2733 128.115 29.6448 128.115 29.6448C127.973 29.8828 127.717 29.8985 127.546 29.6832L127.032 29.0302C126.861 28.8129 126.89 28.4852 127.098 28.3017L127.704 27.7619C127.911 27.5754 128.163 27.635 128.263 27.8902ZM127.335 27.5294L127.629 26.8726C127.65 26.8929 127.668 26.9136 127.668 26.9136C127.852 27.1186 127.789 27.3653 127.527 27.4599L127.335 27.5294ZM126.406 25.8321C126.062 25.7826 125.704 25.791 125.344 25.8762C125.262 25.8958 125.19 25.9307 125.111 25.9567L121.527 20.0526L133.127 10.7863L126.406 25.8321ZM146.053 29.7083C141.862 30.7018 137.666 28.1489 136.681 24.0062C136.051 21.3552 136.894 18.7001 138.675 16.8677L143.507 23.4677C143.735 23.7796 144.123 23.9078 144.479 23.8233C144.596 23.7957 144.709 23.7458 144.813 23.6708C145.136 23.4379 145.26 23.0405 145.163 22.6808C145.331 22.5624 145.418 22.353 145.369 22.1436C145.303 21.8657 145.021 21.6954 144.741 21.7618C144.694 21.773 144.656 21.7979 144.614 21.8203L140.13 15.6955C140.839 15.2526 141.627 14.9086 142.486 14.7048C146.677 13.7113 150.872 16.2644 151.857 20.4092C152.842 24.5497 150.243 28.7148 146.053 29.7083ZM113.645 32.6402C113.732 33.0025 114.1 33.2256 114.466 33.1387C114.833 33.0516 115.061 32.6874 114.975 32.3251C114.888 31.9618 114.521 31.7375 114.154 31.8246C113.787 31.9115 113.559 32.277 113.645 32.6402Z" fill="#65C606"/>
        <defs>
        <linearGradient id="paint0_linear_78_318" x1="140.831" y1="19.218" x2="235" y2="19.218" gradientUnits="userSpaceOnUse">
        <stop stop-color="#C4C4C4"/>
        <stop offset="1" stop-color="#070707"/>
        </linearGradient>
        </defs>
        </svg>