<svg width="138" height="43" viewBox="0 0 138 43" fill="none" xmlns="http://www.w3.org/2000/svg">
    <path d="M43.8313 42.2798L61.3511 41.4562C61.3511 38.9448 63.541 34.8671 63.541 34.8671C63.541 34.8671 66.3233 34.8671 69.0159 34.8671C71.2059 31.5726 74.4909 24.9835 76.6808 24.9835C76.6808 24.9835 77.7758 21.689 79.9658 21.689C82.8471 21.689 98.5805 29.1017 98.5805 29.1017L86.5357 42.2798C86.5357 42.2798 92.4677 39.9447 98.5805 38.9853C100.757 38.6436 98.3239 35.1088 100.77 34.8671C102.883 34.6584 105.15 34.0435 106.245 34.0435C107.34 34.0435 108.471 23.1314 110.625 24.9835C118.29 31.5726 134.063 39.2165 138 42.2798L124.86 28.278L121.575 31.5726L111.72 20.8653L99.6755 26.6308L87.6307 20.0417L84.3457 21.689L78.8708 19.2181L74.4909 24.1599L69.0159 22.5126L55.8761 35.6907L52.1807 35.1759L43.8313 42.2798Z" fill="url(#paint0_linear_9_315)"/>
    <path d="M57.6303 19.1583C57.5817 19.0744 57.3676 19.035 57.2323 18.9161C57.2696 18.7385 57.4177 18.5807 57.4013 18.485C57.3863 18.3638 57.3802 18.3202 57.2073 17.9271C57.0373 17.5334 57.0207 17.5216 56.9453 17.4273C56.8829 17.3519 56.6658 17.3488 56.5111 17.2555C56.5179 17.0746 56.6333 16.8952 56.6029 16.8029C56.5648 16.6871 56.5506 16.6454 56.3134 16.2854C56.0767 15.9274 56.059 15.9201 55.9677 15.839C55.8913 15.7764 55.6767 15.8105 55.5073 15.7447C55.4826 15.565 55.5662 15.368 55.5187 15.2839C55.4624 15.1767 55.4415 15.1376 55.1435 14.8255C54.8479 14.514 54.8269 14.5106 54.7235 14.446C54.6385 14.3959 54.4338 14.4675 54.2547 14.4324C54.1979 14.2603 54.245 14.052 54.1848 13.9772C54.1101 13.8817 54.0831 13.8482 53.7343 13.5902C53.3861 13.3341 53.3678 13.3332 53.2534 13.289C53.1636 13.2547 52.982 13.3565 52.8044 13.3588C52.797 13.3542 52.7895 13.3497 52.7809 13.3444C52.7019 13.186 52.7116 12.9813 52.6404 12.9185C52.55 12.8372 52.5167 12.8084 52.1285 12.6163C51.7413 12.424 51.7218 12.4265 51.6026 12.4024C51.505 12.3846 51.3377 12.5197 51.158 12.5487C51.0447 12.4067 51.0167 12.1953 50.9337 12.1447C50.8293 12.0804 50.7918 12.0567 50.3759 11.9352C49.9594 11.8117 49.9418 11.8179 49.8183 11.8158C49.7193 11.8141 49.5789 11.9774 49.4059 12.0352C49.2681 11.9148 49.2047 11.7107 49.1137 11.6756C49.0008 11.629 48.96 11.6135 48.5275 11.5651C48.096 11.5164 48.0796 11.5235 47.9595 11.5446C47.8612 11.5595 47.7502 11.7441 47.5884 11.8307C47.4334 11.7364 47.3351 11.5458 47.2391 11.5256C47.1187 11.5007 47.0765 11.4929 46.6414 11.5185C46.2083 11.5436 46.1924 11.5568 46.0753 11.595C45.9828 11.6253 45.9056 11.8271 45.7629 11.9406C45.5922 11.8741 45.4629 11.7046 45.3636 11.7019C45.2414 11.6963 45.1978 11.6961 44.7742 11.7966C44.3515 11.8968 44.3378 11.9105 44.2301 11.9706C44.1437 12.0173 44.1026 12.2284 43.9809 12.3631C43.8011 12.325 43.6446 12.1797 43.549 12.1971C43.4245 12.213 43.3806 12.2203 42.9822 12.3913C42.5813 12.5607 42.5748 12.578 42.4746 12.6563C42.3992 12.7182 42.3958 12.9318 42.2998 13.0856C42.1161 13.0799 41.9356 12.9633 41.8451 12.9974C41.7257 13.0351 41.6835 13.0493 41.3209 13.2863C40.9556 13.5207 40.9511 13.5375 40.8677 13.6328C40.8067 13.7018 40.8302 13.8901 40.7791 14.0501L39.8598 12.7698C39.9146 12.5587 39.8867 12.3294 39.7493 12.1397L36.9105 8.21752C36.9692 8.03587 37.0316 7.83445 37.1071 7.61211C37.3423 6.89689 37.5836 6.03344 37.4025 5.21351C37.3726 5.08747 37.3226 4.96197 37.2636 4.83862C37.2814 4.78407 37.3002 4.72929 37.3006 4.66839C37.3006 4.66839 37.3016 4.66816 37.3017 4.64192C37.3008 4.61591 37.2972 4.56959 37.2859 4.52194C37.251 4.28593 36.9839 4.02741 36.7653 3.99116C36.5494 3.9396 36.4029 3.97014 36.2679 4.00005C35.818 4.11511 35.3504 4.37902 34.8113 4.64523C34.2852 4.91256 33.7219 5.17507 33.3279 5.26639C33.2315 5.28924 33.1453 5.3013 33.0812 5.30391C32.7572 5.3241 32.5109 5.59953 32.5288 5.9203C32.5464 6.24007 32.8238 6.48359 33.147 6.46463C33.2995 6.45469 33.4497 6.43062 33.5962 6.39587C33.908 6.31986 34.2211 6.20053 34.5285 6.06581C34.3936 6.21207 34.1543 6.35686 33.6623 6.4819C33.5027 6.51975 33.3161 6.5514 33.1009 6.57832C32.94 6.59759 32.8251 6.7433 32.845 6.90317C32.8638 7.06229 33.0095 7.17557 33.1701 7.15531C33.4039 7.12609 33.6115 7.08945 33.7983 7.04518C33.7983 7.04518 33.8033 7.04398 33.8073 7.04303C34.4819 6.88308 34.8741 6.60978 35.0857 6.29961C35.2484 6.06077 35.2988 5.82655 35.3324 5.68229C35.3344 5.68182 35.3384 5.68086 35.3384 5.68086C35.6426 5.52383 35.9386 5.37711 36.1653 5.27306C36.2006 5.31919 36.2318 5.3789 36.2588 5.48363C36.3314 5.75789 36.2795 6.26713 36.1431 6.75973C36.0577 7.07878 35.9467 7.38817 35.8431 7.65282C35.766 7.67635 35.6885 7.7031 35.6195 7.75196C35.2819 7.99136 35.2016 8.44761 35.4235 8.78814C35.4244 8.80052 35.4203 8.80569 35.4213 8.81906C35.4213 8.81906 35.4902 9.00193 35.6868 9.35163L35.778 9.28912L35.9924 9.58427L23.9896 19.1714L23.2852 18.01C23.2046 17.8761 23.0785 17.7917 22.9414 17.7414L19.1754 11.5374C19.5958 11.2627 19.9765 11.0036 20.1663 10.9586C20.5678 10.8634 22.2856 10.8577 23.2815 10.6216C24.2774 10.3855 22.7143 9.6762 21.9292 9.86233C21.1451 10.0482 14.6526 11.5875 14.6526 11.5875C14.2309 11.6875 14.3623 12.2361 14.8984 12.109C15.4335 11.9822 17.1163 12.423 17.8251 12.2549C17.9637 12.2221 18.1238 12.1506 18.2903 12.066L22.0563 18.2699C22.0355 18.4143 22.0541 18.564 22.1357 18.6977L22.9899 20.1056L21.9089 21.3537C21.8532 21.3113 21.7847 21.2594 21.6891 21.1877C21.3409 20.9316 21.3226 20.9307 21.2082 20.8866C21.1184 20.8523 20.9368 20.954 20.7592 20.9563C20.7518 20.9518 20.7443 20.9473 20.7357 20.942C20.6567 20.7835 20.6664 20.5789 20.5952 20.5161C20.5048 20.4347 20.4715 20.406 20.0833 20.2139C19.6961 20.0215 19.6766 20.0241 19.5574 19.9999C19.4598 19.9822 19.2925 20.1172 19.1128 20.1462C18.9995 20.0043 18.9715 19.7928 18.8885 19.7423C18.7841 19.6779 18.7466 19.6543 18.3307 19.5328C17.9142 19.4092 17.8966 19.4155 17.7731 19.4133C17.6741 19.4116 17.5336 19.5749 17.3607 19.6327C17.2229 19.5123 17.1595 19.3082 17.0685 19.2732C16.9556 19.2266 16.9148 19.2111 16.4823 19.1627C16.0507 19.114 16.0344 19.121 15.9143 19.1422C15.816 19.1571 15.705 19.3417 15.5432 19.4283C15.3882 19.334 15.2899 19.1434 15.1939 19.1232C15.0735 19.0983 15.0313 19.0904 14.5962 19.116C14.1631 19.1411 14.1472 19.1543 14.0301 19.1926C13.9376 19.2229 13.8604 19.4247 13.7177 19.5382C13.547 19.4717 13.4177 19.3021 13.3184 19.2994C13.1962 19.2938 13.1526 19.2937 12.729 19.3941C12.3063 19.4943 12.2926 19.508 12.1849 19.5682C12.0985 19.6149 12.0574 19.8259 11.9356 19.9607C11.7559 19.9226 11.5994 19.7773 11.5038 19.7947C11.3793 19.8106 11.3354 19.8178 10.937 19.9888C10.5361 20.1583 10.5296 20.1756 10.4294 20.2538C10.354 20.3158 10.3506 20.5294 10.2546 20.6832C10.0709 20.6775 9.89044 20.5609 9.7999 20.5949C9.68054 20.6327 9.63832 20.6469 9.27572 20.8838C8.9104 21.1183 8.90591 21.1351 8.82249 21.2303C8.75739 21.3045 8.79186 21.5165 8.72519 21.6822C8.54271 21.7087 8.3448 21.6256 8.26081 21.6738C8.14842 21.7319 8.10985 21.7526 7.79518 22.0484C7.47702 22.343 7.47501 22.3613 7.40895 22.4671C7.35749 22.5495 7.4291 22.7527 7.39355 22.9289C7.21738 22.9864 7.00747 22.9376 6.93428 23.0001C6.83387 23.0773 6.79973 23.1033 6.53936 23.4491C6.27876 23.794 6.27953 23.8106 6.23307 23.9275C6.19825 24.0175 6.30171 24.1985 6.30093 24.3737C6.29786 24.3786 6.29502 24.3846 6.29095 24.3897C6.12995 24.4709 5.91949 24.46 5.85864 24.5342C5.77304 24.6247 5.74404 24.6588 5.54868 25.0417C5.35255 25.4258 5.35656 25.4427 5.33153 25.565C5.31213 25.6618 5.45007 25.8273 5.47528 26.0048C5.33033 26.1178 5.11561 26.1425 5.06863 26.2259C5.00057 26.3322 4.97752 26.3692 4.85154 26.7807C4.72455 27.1924 4.73257 27.2083 4.72804 27.3321C4.72611 27.4311 4.8917 27.57 4.9478 27.7392C4.82551 27.8761 4.61751 27.938 4.58394 28.0288C4.53724 28.1447 4.5204 28.1854 4.47076 28.6103C4.41657 29.0383 4.42737 29.0525 4.44487 29.1752C4.46048 29.2722 4.64775 29.3819 4.73255 29.5379C4.63476 29.6932 4.44151 29.7904 4.42489 29.8855C4.39839 30.0061 4.39152 30.0486 4.41487 30.4771C4.4352 30.9064 4.44925 30.9209 4.48659 31.0378C4.52027 31.1305 4.72379 31.2059 4.83535 31.3451C4.76638 31.5146 4.59242 31.6439 4.59404 31.7399C4.58851 31.8639 4.58814 31.907 4.68843 32.3246C4.78294 32.7446 4.79952 32.7564 4.85676 32.8634C4.90557 32.9483 5.11985 32.9887 5.25397 33.1068C5.21564 33.2847 5.06855 33.4423 5.08593 33.5377C5.10118 33.6599 5.10707 33.7026 5.28001 34.0956C5.4484 34.4918 5.46528 34.5004 5.54219 34.5965C5.60564 34.6716 5.82372 34.6744 5.97745 34.768C5.96983 34.9501 5.85243 35.13 5.88517 35.2186C5.92298 35.3376 5.93713 35.3793 6.17362 35.7363C6.41082 36.0963 6.42823 36.1027 6.52162 36.1833C6.59724 36.2471 6.81161 36.212 6.97876 36.2772C7.00391 36.4589 6.91904 36.6552 6.96938 36.7376C7.02609 36.8468 7.0468 36.8849 7.34448 37.196C7.64063 37.5095 7.66012 37.5111 7.76473 37.5765C7.84833 37.6248 8.05444 37.555 8.23229 37.5894C8.29057 37.7632 8.24154 37.9719 8.30429 38.0441C8.37966 38.1426 8.40646 38.175 8.75571 38.4309C9.10242 38.6894 9.1202 38.6883 9.23462 38.7325C9.32667 38.7673 9.51325 38.6643 9.69383 38.6656C9.69631 38.6671 9.69879 38.6686 9.70227 38.6699C9.78476 38.8296 9.77447 39.0407 9.84814 39.1008C9.93923 39.1851 9.97335 39.2126 10.3601 39.403C10.747 39.5985 10.7668 39.5927 10.8875 39.6187C10.984 39.6367 11.1511 39.5006 11.3313 39.4736C11.4448 39.6165 11.4718 39.8282 11.5554 39.8765C11.6592 39.9431 11.6962 39.9648 12.1129 40.0851C12.5276 40.2101 12.5447 40.2018 12.6687 40.206C12.7673 40.2057 12.9092 40.0441 13.0811 39.9866C13.2179 40.1072 13.2815 40.3123 13.3721 40.3454C13.4872 40.3925 13.5288 40.4068 13.9591 40.4547C14.3901 40.5055 14.406 40.4965 14.53 40.4787C14.6268 40.462 14.7368 40.2776 14.8968 40.1925C15.0521 40.2878 15.1504 40.4784 15.2484 40.4939C15.3684 40.521 15.4113 40.5276 15.8444 40.5025C16.2787 40.4782 16.2922 40.4635 16.412 40.4277C16.506 40.3949 16.5825 40.1944 16.7244 40.0821C16.895 40.1486 17.0244 40.3182 17.1232 40.3189C17.2464 40.3242 17.2897 40.3234 17.7114 40.2234C18.1348 40.1262 18.1478 40.1095 18.2571 40.0521C18.3444 40.0042 18.3834 39.7936 18.5032 39.6593C18.6837 39.6962 18.8422 39.8411 18.939 39.8244C19.0613 39.808 19.1052 39.8007 19.5036 39.6297C19.9038 39.4615 19.9108 39.442 20.0107 39.3669C20.0869 39.3038 20.0902 39.0902 20.1852 38.9366C20.369 38.9423 20.5491 39.0579 20.6429 39.0241C20.7603 38.9869 20.8023 38.9717 21.1641 38.7359C21.5292 38.5005 21.5344 38.4825 21.619 38.3922C21.6827 38.3163 21.6482 38.1043 21.7156 37.9373C21.8983 37.9118 22.096 37.9939 22.182 37.9452C22.2914 37.8879 22.3285 37.8654 22.6456 37.5711C22.9638 37.2766 22.9653 37.2563 23.0321 37.1534C23.0831 37.069 23.012 36.8678 23.0473 36.6906C23.2224 36.6334 23.4321 36.6812 23.5085 36.619C23.6062 36.5434 23.6411 36.5163 23.9005 36.1707C24.1611 35.8258 24.1598 35.8072 24.208 35.6931C24.2428 35.603 24.1391 35.4211 24.1404 35.2436C24.1437 35.2397 24.1458 35.235 24.1489 35.23C24.3099 35.1489 24.5211 35.1586 24.5842 35.0849C24.6675 34.9938 24.6968 34.9607 24.8909 34.5771C25.0873 34.194 25.0828 34.1751 25.1108 34.0563C25.1287 33.9577 24.991 33.7933 24.9645 33.615C25.1097 33.503 25.3237 33.4753 25.3747 33.3909C25.4403 33.2873 25.4633 33.2504 25.587 32.8384C25.6337 32.6868 25.6595 32.5989 25.677 32.5298L29.354 31.3477C29.4475 31.3349 29.5401 31.3318 29.6324 31.31C31.1504 30.9501 32.0911 29.4417 31.7347 27.942C31.5913 27.3385 31.2539 26.8335 30.8085 26.4631L37.4489 11.5989L38.4866 13.0336C38.6116 13.2073 38.7983 13.3056 38.9962 13.3352L39.8126 14.4721C39.5251 14.7395 39.5142 14.7651 39.4507 14.8683C39.3992 14.9507 39.4708 15.1539 39.4353 15.3301C39.2591 15.3876 39.0492 15.3388 38.976 15.4012C38.8756 15.4785 38.8414 15.5044 38.5811 15.8503C38.3205 16.1951 38.3212 16.2117 38.2748 16.3286C38.24 16.4187 38.3434 16.5996 38.3427 16.7749C38.3396 16.7798 38.3367 16.7857 38.3327 16.7909C38.1717 16.8721 37.9612 16.8611 37.9004 16.9353C37.8148 17.0259 37.7858 17.06 37.5904 17.4429C37.3943 17.827 37.3983 17.8438 37.3732 17.9661C37.3538 18.063 37.4918 18.2284 37.517 18.4059C37.372 18.5189 37.1573 18.5436 37.1103 18.6271C37.0423 18.7334 37.0192 18.7703 36.8933 19.1818C36.7663 19.5936 36.7743 19.6095 36.7698 19.7332C36.7678 19.8322 36.9334 19.9712 36.9895 20.1403C36.8672 20.2773 36.6592 20.3392 36.6257 20.43C36.579 20.5459 36.5621 20.5866 36.5125 21.0115C36.4583 21.4395 36.4691 21.4537 36.4866 21.5764C36.5022 21.6733 36.6895 21.7831 36.7743 21.9391C36.6765 22.0944 36.4832 22.1916 36.4666 22.2867C36.4401 22.4073 36.4332 22.4498 36.4566 22.8783C36.4769 23.3075 36.491 23.322 36.5283 23.439C36.562 23.5317 36.7655 23.6071 36.8771 23.7463C36.8081 23.9157 36.6341 24.045 36.6358 24.1411C36.6302 24.2651 36.6299 24.3082 36.7301 24.7258C36.8247 25.1458 36.8412 25.1576 36.8985 25.2646C36.9473 25.3495 37.1616 25.3899 37.2957 25.508C37.2574 25.6859 37.1103 25.8434 37.1276 25.9389C37.1429 26.0611 37.1488 26.1038 37.3217 26.4968C37.4901 26.893 37.507 26.9016 37.5839 26.9976C37.6474 27.0728 37.8654 27.0756 38.0192 27.1691C38.0115 27.3513 37.8941 27.5311 37.9269 27.6198C37.9647 27.7388 37.9789 27.7805 38.2153 28.1375C38.4525 28.4975 38.4699 28.5038 38.5633 28.5844C38.639 28.6483 38.8533 28.6132 39.0205 28.6784C39.0456 28.8601 38.9608 29.0564 39.0111 29.1388C39.0678 29.248 39.0885 29.2861 39.3862 29.5971C39.6823 29.9106 39.7018 29.9123 39.8064 29.9777C39.89 30.026 40.0962 29.9562 40.274 29.9905C40.3323 30.1644 40.2833 30.3731 40.346 30.4453C40.4214 30.5438 40.4482 30.5762 40.7974 30.832C41.1441 31.0906 41.1619 31.0895 41.2763 31.1337C41.3684 31.1685 41.555 31.0655 41.7355 31.0667C41.738 31.0682 41.7405 31.0698 41.744 31.071C41.8265 31.2308 41.8162 31.4418 41.8899 31.5019C41.9809 31.5862 42.0151 31.6138 42.4018 31.8041C42.7887 31.9997 42.8085 31.9939 42.9292 32.0198C43.0257 32.0378 43.1928 31.9018 43.373 31.8748C43.4865 32.0177 43.5135 32.2294 43.5971 32.2777C43.7009 32.3443 43.7379 32.3659 44.1546 32.4862C44.5693 32.6113 44.5864 32.603 44.7104 32.6071C44.809 32.6068 44.9509 32.4453 45.1228 32.3878C45.2597 32.5084 45.3232 32.7135 45.4138 32.7465C45.5289 32.7937 45.5705 32.8079 46.0008 32.8558C46.4318 32.9067 46.4477 32.8977 46.5717 32.8798C46.6685 32.8632 46.7785 32.6788 46.9386 32.5937C47.0938 32.689 47.1921 32.8795 47.2902 32.8951C47.4101 32.9222 47.453 32.9288 47.8861 32.9037C48.3204 32.8794 48.3339 32.8646 48.4537 32.8289C48.5477 32.7961 48.6242 32.5956 48.7661 32.4833C48.9367 32.5498 49.0661 32.7193 49.1649 32.72C49.2882 32.7254 49.3314 32.7246 49.7531 32.6246C50.1765 32.5274 50.1895 32.5107 50.2989 32.4533C50.3861 32.4053 50.4251 32.1948 50.5449 32.0605C50.7254 32.0974 50.8839 32.2422 50.9807 32.2256C51.103 32.2092 51.1469 32.2019 51.5453 32.0309C51.9455 31.8626 51.9525 31.8432 52.0524 31.7681C52.1286 31.705 52.1319 31.4913 52.2269 31.3378C52.4107 31.3435 52.5909 31.4591 52.6846 31.4253C52.802 31.388 52.844 31.3728 53.2058 31.1371C53.5709 30.9017 53.5762 30.8837 53.6608 30.7934C53.7244 30.7175 53.6899 30.5055 53.7574 30.3385C53.9401 30.313 54.1377 30.3951 54.2237 30.3464C54.3331 30.289 54.3702 30.2666 54.6874 29.9723C55.0055 29.6777 55.0071 29.6574 55.0738 29.5546C55.1248 29.4702 55.0537 29.269 55.089 29.0918C55.2642 29.0345 55.4738 29.0823 55.5503 29.0202C55.6479 28.9446 55.6828 28.9175 55.9422 28.5718C56.2028 28.227 56.2015 28.2084 56.2497 28.0942C56.2845 28.0042 56.1808 27.8223 56.1821 27.6448C56.1854 27.6408 56.1875 27.6361 56.1906 27.6312C56.3516 27.5501 56.5628 27.5598 56.6259 27.4861C56.7093 27.395 56.7385 27.3619 56.9326 26.9783C57.129 26.5952 57.1245 26.5763 57.1525 26.4575C57.1704 26.3589 57.0327 26.1944 57.0063 26.0162C57.1514 25.9042 57.3655 25.8765 57.4164 25.7921C57.482 25.6885 57.505 25.6515 57.6288 25.2395C57.757 24.8286 57.7495 24.8104 57.7557 24.6894C57.7564 24.5896 57.5921 24.4514 57.5347 24.2815C57.6573 24.1456 57.8626 24.0812 57.8984 23.9909C57.9455 23.877 57.9624 23.8363 58.012 23.4114C58.0652 22.9836 58.0564 22.969 58.0391 22.8472C58.0223 22.7495 57.8365 22.6416 57.75 22.4828C57.848 22.3285 58.0398 22.2296 58.0577 22.1352C58.0834 22.0158 58.0923 21.9728 58.0677 21.5436C58.0456 21.1158 58.0333 21.0999 57.9964 20.9849C57.9625 20.8912 57.7602 20.8165 57.6474 20.6766C57.7166 20.5081 57.8883 20.3783 57.889 20.2828C57.8935 20.159 57.8949 20.1157 57.7943 19.6971C57.7023 19.2786 57.6877 19.2663 57.6303 19.1583ZM20.7067 24.3059C21.5171 25.0961 22.1632 26.0658 22.5626 27.1799L17.2467 28.3019L20.7067 24.3059ZM22.0856 33.4158L17.99 34.7328C18.0201 34.6272 18.0329 34.5161 18.0058 34.402C17.9197 34.0397 17.5525 33.8154 17.1851 33.9025C16.8186 33.9894 16.5905 34.3549 16.6766 34.7171C16.7626 35.0794 17.1309 35.3035 17.4973 35.2166C17.6047 35.1911 17.6966 35.1358 17.7761 35.0687L21.9033 33.7421C20.8577 35.4694 19.1417 36.7988 17.0083 37.3046C12.8168 38.2984 8.62128 35.7452 7.63711 31.6035C6.65246 27.4598 9.25151 23.2946 13.443 22.3009C15.7953 21.7432 18.148 22.303 19.9332 23.6348L15.5903 28.6506L15.363 28.6982C15.1065 28.6363 14.8343 28.6243 14.5582 28.6898C13.6386 28.9078 13.0655 29.8258 13.2825 30.7389C13.499 31.65 14.423 32.2089 15.3426 31.9909C15.9801 31.8397 16.4431 31.3557 16.6013 30.7719L23.0084 29.9532C22.98 31.1814 22.6563 32.3632 22.0856 33.4158ZM22.9669 28.9304L16.5545 29.7493C16.4998 29.6039 16.433 29.4657 16.3457 29.3438L16.9722 28.6197L22.6427 27.4231C22.7052 27.6148 22.7657 27.807 22.8129 28.0055C22.8862 28.3142 22.9331 28.6228 22.9669 28.9304ZM23.0994 22.4229C22.8037 22.1113 22.7827 22.1079 22.6793 22.0433C22.6769 22.0418 22.6701 22.0445 22.6666 22.0432L23.5487 21.0247L26.7498 26.2973L25.3187 26.5989C25.2727 26.5751 25.2271 26.5482 25.1881 26.5134C25.2254 26.3358 25.3735 26.178 25.3571 26.0823C25.3421 25.9611 25.336 25.9175 25.1631 25.5244C24.9931 25.1307 24.9765 25.1189 24.9011 25.0246C24.8387 24.9492 24.6216 24.9462 24.4669 24.8528C24.4737 24.6719 24.5891 24.4926 24.5587 24.4002C24.5206 24.2844 24.5064 24.2427 24.2692 23.8827C24.0325 23.5247 24.0148 23.5174 23.9235 23.4363C23.8471 23.3737 23.6325 23.4078 23.4631 23.3421C23.4384 23.1623 23.522 22.9653 23.4745 22.8812C23.4182 22.774 23.3973 22.7349 23.0994 22.4229ZM27.1158 28.2707C26.8387 28.3007 26.6707 28.1068 26.7418 27.8393C26.7418 27.8393 26.8531 27.424 27.1777 27.0493C27.1835 27.0426 27.1909 27.0378 27.1957 27.0314L27.8982 28.189L27.1158 28.2707ZM28.2671 29.282C28.2775 29.3435 28.2781 29.4084 28.2644 29.4714L28.094 30.2583C28.0361 30.5278 27.7958 30.6278 27.562 30.4788C27.562 30.4788 27.1964 30.2478 26.9376 29.8279C26.8628 29.7051 26.811 29.5853 26.7683 29.4728L28.2671 29.282ZM26.1792 28.52L25.9332 28.5511C25.8728 28.471 25.7078 28.3969 25.6072 28.2729C25.6765 28.1045 25.8482 27.9747 25.8488 27.8791C25.8533 27.7554 25.8547 27.7121 25.7542 27.2935C25.673 26.9384 25.6484 26.8751 25.609 26.7984L26.8915 26.5279L26.9704 26.6591C26.4868 27.1544 26.2016 27.8154 26.1792 28.52ZM25.6997 32.2549C25.6746 32.1581 25.5466 32.0344 25.495 31.8799C25.6176 31.7439 25.8228 31.6795 25.8587 31.5892C25.9058 31.4753 25.9227 31.4346 25.9723 31.0098C26.0255 30.582 26.0167 30.5673 25.9994 30.4456C25.9826 30.3479 25.7968 30.2399 25.7103 30.0811C25.8083 29.9268 26.0001 29.8279 26.0179 29.7335C26.0292 29.6784 26.0374 29.6366 26.0411 29.5676L26.3416 29.5289C26.6868 30.4996 27.5278 31.1872 28.5168 31.3501L25.6997 32.2549ZM30.3566 30.5103C30.3566 30.5103 30.0187 30.7843 29.5338 30.8993C29.0499 31.014 28.6257 30.9206 28.6257 30.9206C28.355 30.8611 28.2608 30.6255 28.4167 30.3977L28.8873 29.7095C29.0437 29.4795 29.3677 29.4059 29.6083 29.5438L30.3122 29.9442C30.5513 30.0804 30.5729 30.3363 30.3566 30.5103ZM28.7279 26.7268C28.6152 26.4757 28.7517 26.2557 29.0298 26.239C29.0298 26.239 29.1101 26.2378 29.2221 26.2448L28.8675 27.0376L28.7279 26.7268ZM31.2632 27.8902C31.2632 27.8902 31.421 28.291 31.3799 28.7831C31.3374 29.2733 31.1149 29.6448 31.1149 29.6448C30.9732 29.8828 30.717 29.8985 30.5461 29.6832L30.0324 29.0302C29.861 28.8129 29.8902 28.4852 30.0979 28.3017L30.7035 27.7619C30.9106 27.5754 31.1634 27.635 31.2632 27.8902ZM30.3354 27.5294L30.629 26.8726C30.6498 26.8929 30.6685 26.9136 30.6685 26.9136C30.8519 27.1186 30.7885 27.3653 30.5268 27.4599L30.3354 27.5294ZM29.4061 25.8321C29.0624 25.7826 28.7038 25.791 28.3444 25.8762C28.2621 25.8958 28.1898 25.9307 28.1111 25.9567L24.5267 20.0526L36.1274 10.7863L29.4061 25.8321ZM49.0527 29.7083C44.8622 30.7018 40.6657 28.1489 39.6813 24.0062C39.0514 21.3552 39.8935 18.7001 41.6746 16.8677L46.5071 23.4677C46.735 23.7796 47.1229 23.9078 47.4793 23.8233C47.5958 23.7957 47.709 23.7458 47.8132 23.6708C48.1364 23.4379 48.2605 23.0405 48.1633 22.6808C48.3314 22.5624 48.4184 22.353 48.3687 22.1436C48.3026 21.8657 48.0214 21.6954 47.7413 21.7618C47.6942 21.773 47.6555 21.7979 47.6142 21.8203L43.13 15.6955C43.8392 15.2526 44.6271 14.9086 45.4864 14.7048C49.6769 13.7113 53.8724 16.2644 54.8573 20.4092C55.8422 24.5497 53.2432 28.7148 49.0527 29.7083ZM16.6454 32.6402C16.7315 33.0025 17.0995 33.2256 17.4659 33.1387C17.8334 33.0516 18.0608 32.6874 17.9747 32.3251C17.8884 31.9618 17.5211 31.7375 17.1537 31.8246C16.7872 31.9115 16.5591 32.277 16.6454 32.6402Z" fill="#7AA870"/>
    <defs>
    <linearGradient id="paint0_linear_9_315" x1="43.8313" y1="19.2181" x2="138" y2="19.2181" gradientUnits="userSpaceOnUse">
    <stop stop-color="#777676"/>
    <stop offset="0.9998" stop-color="#DFDFDF"/>
    <stop offset="0.9999" stop-color="white"/>
    <stop offset="1" stop-color="#9F8D8D"/>
    </linearGradient>
    </defs>
</svg>