<svg width="17" height="16" viewBox="0 0 17 16" fill="none" xmlns="http://www.w3.org/2000/svg">
<path fill-rule="evenodd" clip-rule="evenodd" d="M15.5144 16C16.0614 16 16.4486 15.5792 16.4486 15.0405C16.4486 14.788 16.3644 14.5439 16.1793 14.3672L12.215 10.3945C13.0483 9.30037 13.5449 7.94529 13.5449 6.47238C13.5449 2.91215 10.6327 0 7.07248 0C3.52067 0 0.600098 2.90373 0.600098 6.47238C0.600098 10.0326 3.51225 12.9448 7.07248 12.9448C8.47806 12.9448 9.77422 12.4903 10.8347 11.7328L14.8242 15.7223C15.0094 15.9074 15.2534 16 15.5144 16ZM7.07248 11.5476C4.29499 11.5476 1.99726 9.24987 1.99726 6.47238C1.99726 3.6949 4.29499 1.39716 7.07248 1.39716C9.84997 1.39716 12.1477 3.6949 12.1477 6.47238C12.1477 9.24987 9.84997 11.5476 7.07248 11.5476Z" fill="white"/>
</svg>
